<svg version="1.0" xmlns="http://www.w3.org/2000/svg" width="240.000000ptpx" height="240.000000ptpx" viewBox="0 0 240.000000 240.000000" preserveAspectRatio="xMidYMid meet" transform="rotate(0) scale(1, 1)">

<g transform="translate(0.000000,240.000000) scale(0.100000,-0.100000)" fill="#888888" stroke="none">
<path d="M1150 2393 c-27 -11 -944 -514 -982 -539 -21 -13 -47 -42 -58 -64&#10;-19 -38 -20 -57 -20 -590 0 -533 1 -552 20 -590 11 -22 37 -51 58 -64 20 -13&#10;248 -140 507 -282 453 -250 472 -259 525 -259 53 0 70 8 535 264 264 145 492&#10;273 508 283 15 11 36 37 47 58 19 38 20 61 20 590 0 529 -1 552 -20 590 -11&#10;21 -32 47 -47 58 -16 10 -244 137 -507 282 -400 220 -487 264 -525 266 -25 2&#10;-53 1 -61 -3z m486 -355 c267 -147 426 -240 430 -252 4 -11 -1 -25 -12 -36&#10;-30 -29 -843 -472 -859 -468 -8 2 -204 107 -435 233 -264 145 -422 237 -426&#10;249 -3 11 0 25 10 34 20 20 837 471 854 471 8 1 205 -104 438 -231z m-951&#10;-628 c231 -127 428 -240 438 -251 16 -20 17 -58 17 -476 0 -294 -4 -461 -10&#10;-474 -6 -10 -20 -19 -31 -19 -12 0 -84 35 -162 79 -78 43 -263 145 -412 226&#10;-148 81 -278 154 -287 163 -17 14 -18 50 -18 487 0 474 1 495 35 495 5 0 199&#10;-104 430 -230z"/>
<path d="M400 1040 c-39 -39 -27 -56 71 -106 50 -25 94 -43 97 -40 9 10 -17&#10;82 -40 111 -20 25 -73 55 -98 55 -5 0 -19 -9 -30 -20z"/>
<path d="M712 864 c-12 -8 -22 -25 -22 -38 0 -18 17 -32 91 -70 50 -27 93 -46&#10;96 -43 8 9 -6 61 -27 95 -21 34 -74 72 -100 72 -9 0 -26 -7 -38 -16z"/>
</g>
</svg>